<svg width="14" height="17" viewBox="0 0 14 17" fill="none" xmlns="http://www.w3.org/2000/svg">
<path d="M11.6295 6H10.0656V1C10.0656 0.45 9.62293 0 9.08195 0H5.14752C4.60654 0 4.16392 0.45 4.16392 1V6H2.59998C1.72457 6 1.28195 7.08 1.90162 7.71L6.41638 12.3C6.79998 12.69 7.41966 12.69 7.80326 12.3L12.318 7.71C12.9377 7.08 12.5049 6 11.6295 6ZM0.229492 16C0.229492 16.55 0.672115 17 1.2131 17H13.0164C13.5574 17 14 16.55 14 16C14 15.45 13.5574 15 13.0164 15H1.2131C0.672115 15 0.229492 15.45 0.229492 16Z" fill="black"/>
</svg>
