<svg width="22" height="20" viewBox="0 0 22 20" fill="none" xmlns="http://www.w3.org/2000/svg">
<path d="M18 5.5C18.2833 5.5 18.5207 5.40433 18.712 5.213C18.904 5.021 19 4.78333 19 4.5C19 4.21667 18.904 3.979 18.712 3.787C18.5207 3.59567 18.2833 3.5 18 3.5C17.7167 3.5 17.4793 3.59567 17.288 3.787C17.096 3.979 17 4.21667 17 4.5C17 4.78333 17.096 5.021 17.288 5.213C17.4793 5.40433 17.7167 5.5 18 5.5ZM14 5.5C14.2833 5.5 14.521 5.40433 14.713 5.213C14.9043 5.021 15 4.78333 15 4.5C15 4.21667 14.9043 3.979 14.713 3.787C14.521 3.59567 14.2833 3.5 14 3.5C13.7167 3.5 13.4793 3.59567 13.288 3.787C13.096 3.979 13 4.21667 13 4.5C13 4.78333 13.096 5.021 13.288 5.213C13.4793 5.40433 13.7167 5.5 14 5.5ZM13.5 8.9H18.5C18.5 8.31667 18.246 7.854 17.738 7.512C17.2293 7.17067 16.65 7 16 7C15.35 7 14.771 7.17067 14.263 7.512C13.7543 7.854 13.5 8.31667 13.5 8.9ZM6 20C4.33333 20 2.91667 19.4167 1.75 18.25C0.583333 17.0833 0 15.6667 0 14V7H12V14C12 15.6667 11.4167 17.0833 10.25 18.25C9.08333 19.4167 7.66667 20 6 20ZM6 18C7.1 18 8.04167 17.6083 8.825 16.825C9.60833 16.0417 10 15.1 10 14V9H2V14C2 15.1 2.39167 16.0417 3.175 16.825C3.95833 17.6083 4.9 18 6 18ZM16 13C15.5667 13 15.1377 12.9543 14.713 12.863C14.2877 12.771 13.8833 12.6333 13.5 12.45V10.1C13.8667 10.3833 14.2627 10.604 14.688 10.762C15.1127 10.9207 15.55 11 16 11C17.1 11 18.0417 10.6083 18.825 9.825C19.6083 9.04167 20 8.1 20 7V2H12V5.5H10V0H22V7C22 8.66667 21.4167 10.0833 20.25 11.25C19.0833 12.4167 17.6667 13 16 13ZM4 12.5C4.28333 12.5 4.521 12.404 4.713 12.212C4.90433 12.0207 5 11.7833 5 11.5C5 11.2167 4.90433 10.979 4.713 10.787C4.521 10.5957 4.28333 10.5 4 10.5C3.71667 10.5 3.479 10.5957 3.287 10.787C3.09567 10.979 3 11.2167 3 11.5C3 11.7833 3.09567 12.0207 3.287 12.212C3.479 12.404 3.71667 12.5 4 12.5ZM8 12.5C8.28333 12.5 8.521 12.404 8.713 12.212C8.90433 12.0207 9 11.7833 9 11.5C9 11.2167 8.90433 10.979 8.713 10.787C8.521 10.5957 8.28333 10.5 8 10.5C7.71667 10.5 7.47933 10.5957 7.288 10.787C7.096 10.979 7 11.2167 7 11.5C7 11.7833 7.096 12.0207 7.288 12.212C7.47933 12.404 7.71667 12.5 8 12.5ZM6 15.9C6.65 15.9 7.22933 15.729 7.738 15.387C8.246 15.0457 8.5 14.5833 8.5 14H3.5C3.5 14.5833 3.75433 15.0457 4.263 15.387C4.771 15.729 5.35 15.9 6 15.9Z" fill="#EC8000"/>
</svg>
