<svg width="14" height="15" viewBox="0 0 14 15" fill="none" xmlns="http://www.w3.org/2000/svg">
<path d="M10.5 7C10.5 6.90793 10.4254 6.83333 10.3334 6.83333H3.66669C3.57462 6.83333 3.50002 6.90793 3.50002 7V13C3.50002 13.6443 2.97769 14.1667 2.33335 14.1667C1.68902 14.1667 1.16669 13.6443 1.16669 13V1.66667C1.16669 1.02233 1.68902 0.5 2.33335 0.5H11.6667C12.311 0.5 12.8334 1.02233 12.8334 1.66667V13C12.8334 13.6443 12.311 14.1667 11.6667 14.1667C11.0224 14.1667 10.5 13.6443 10.5 13V7ZM3.50002 4.33333C3.50002 4.42538 3.57462 4.5 3.66669 4.5H10.3334C10.4254 4.5 10.5 4.42538 10.5 4.33333V3C10.5 2.90795 10.4254 2.83333 10.3334 2.83333H3.66669C3.57462 2.83333 3.50002 2.90795 3.50002 3V4.33333Z" stroke="black" stroke-width="0.5" stroke-linecap="round" stroke-linejoin="round"/>
</svg>
