<svg width="17" height="17" viewBox="0 0 17 17" fill="none" xmlns="http://www.w3.org/2000/svg">
<path d="M5.49739 2.30927L14.9493 9.71552L15.286 9.41402L5.74339 2.08877L5.49739 2.30927ZM8.57764 6.25164L4.70914 3.01464C4.70914 3.01464 3.36289 3.87414 1.73239 5.75927L5.16439 9.30752L8.57764 6.25164ZM0.102264 7.52252L7.40276 16.4704L8.75089 15.264L0.96739 6.36489C0.96739 6.36489 0.289014 6.73202 0.102264 7.52252ZM8.28251 8.03552L12.5234 11.8868L13.8708 10.6804L9.45514 6.98589L8.28251 8.03552ZM5.93726 10.1351L9.82864 14.2991L11.1756 13.0931L7.10989 9.08552L5.93726 10.1351ZM8.44639 1.03352L7.87452 2.63927L8.23302 2.90027L10.0536 1.27014L9.69739 1.04589L8.44302 2.16902L8.99764 0.603768L8.62564 0.369019L6.89052 1.92227L7.20139 2.14839L8.44639 1.03352ZM10.0045 4.19214L10.3518 3.88052L9.29239 3.12752L9.77276 2.69777L10.7136 3.34202L11.0478 3.04239L10.0964 2.40714L10.4931 2.05239L11.5465 2.73377L11.8885 2.42814L10.432 1.50864L8.58776 3.15977L10.0045 4.19214ZM11.1329 5.01414L12.5725 4.14227L13.0439 3.84377L12.7311 4.24802L11.8049 5.50464L12.2523 5.83052L15.0228 4.40589L14.497 4.07402L12.9779 4.94327L12.5901 5.17802L12.8504 4.83564L13.7508 3.60302L13.2453 3.28427L11.8409 4.15464L11.4678 4.39052L11.7246 4.06389L12.5751 2.86127L12.1011 2.56202L10.7283 4.71939L11.1329 5.01414ZM16.3401 5.13939C15.9993 4.92527 15.6809 4.82289 15.3831 4.82889C15.0876 4.83527 14.8454 4.92414 14.6545 5.09514C14.4449 5.28264 14.3744 5.47727 14.4434 5.67902C14.4839 5.80014 14.6129 5.97527 14.833 6.20702L15.0606 6.44627C15.1964 6.58727 15.2838 6.70277 15.322 6.79127C15.3595 6.88089 15.3411 6.95927 15.2673 7.02527C15.1409 7.13814 14.9763 7.15952 14.7741 7.09052C14.6485 7.04286 14.5301 6.97785 14.4224 6.89739C14.2086 6.74514 14.1048 6.59852 14.1074 6.45714C14.1089 6.37989 14.1513 6.29139 14.2341 6.19164L13.7425 5.84889C13.5209 6.04727 13.4369 6.26852 13.4924 6.51414C13.5483 6.76202 13.7384 7.00652 14.0684 7.24727C14.3973 7.48839 14.7246 7.61739 15.0464 7.63164C15.3715 7.64552 15.6393 7.56002 15.8455 7.37439C16.048 7.19364 16.12 6.99939 16.0623 6.79277C16.0255 6.66039 15.9224 6.50627 15.7559 6.33077L15.3828 5.93702C15.2406 5.78852 15.1559 5.68539 15.127 5.62652C15.082 5.53689 15.0981 5.45777 15.1758 5.38877C15.2601 5.31302 15.3681 5.28227 15.5001 5.29539C15.634 5.30852 15.7735 5.36214 15.9194 5.45589C16.0518 5.54139 16.1451 5.62989 16.1973 5.72139C16.2779 5.85939 16.2554 5.99252 16.1316 6.11889L16.6855 6.48377C16.9158 6.26177 16.9878 6.02664 16.9019 5.77952C16.8179 5.53464 16.63 5.32089 16.3401 5.13939Z" fill="#65AA65"/>
</svg>
