<svg width="20" height="15" viewBox="0 0 20 15" fill="none" xmlns="http://www.w3.org/2000/svg">
<path d="M17.08 2.60005C16.36 1.40005 15.04 0.800049 13.6 0.800049H6.40003C4.96003 0.800049 3.64003 1.40005 2.92003 2.60005C0.160027 6.80005 -0.439973 13.16 1.48003 14.48C3.40003 15.8 7.72003 10.04 10 10.04C12.28 10.04 16.48 15.8 18.52 14.48C20.44 13.16 19.84 6.80005 17.08 2.60005ZM7.60003 6.80005H6.40003V8.00005H5.20003V6.80005H4.00003V5.60005H5.20003V4.40005H6.40003V5.60005H7.60003V6.80005ZM14.08 7.40005C14.08 8.00005 13.6 8.48005 13 8.48005C12.4 8.48005 11.92 8.00005 11.92 7.40005C11.92 6.80005 12.4 6.32005 13 6.32005C13.6 6.32005 14.08 6.80005 14.08 7.40005ZM16.36 5.00005C16.36 5.60005 15.88 6.08005 15.28 6.08005C14.68 6.08005 14.2 5.60005 14.2 5.00005C14.2 4.40005 14.68 3.92005 15.28 3.92005C15.88 3.92005 16.36 4.40005 16.36 5.00005Z" fill="#803224"/>
</svg>
