<svg width="21" height="14" viewBox="0 0 21 14" fill="none" xmlns="http://www.w3.org/2000/svg">
<path d="M12.249 0.5H19.803L19.903 0.514L20.002 0.542L20.062 0.568C20.142 0.602 20.215 0.653 20.281 0.718L20.321 0.762L20.365 0.819L20.419 0.909L20.458 0.999L20.477 1.063L20.491 1.127L20.5 1.222V8.754C20.4999 8.94402 20.4277 9.12694 20.298 9.26579C20.1683 9.40464 19.9907 9.48907 19.8011 9.50203C19.6115 9.51498 19.4241 9.45548 19.2767 9.33557C19.1293 9.21565 19.0329 9.04425 19.007 8.856L19 8.754V3.059L11.281 10.779C11.154 10.906 10.9856 10.9832 10.8065 10.9966C10.6274 11.01 10.4494 10.9587 10.305 10.852L10.22 10.779L7.24996 7.809L1.77996 13.279C1.64614 13.4132 1.46647 13.4917 1.27709 13.4989C1.0877 13.506 0.902644 13.4412 0.759119 13.3174C0.615594 13.1936 0.524245 13.0201 0.503437 12.8317C0.48263 12.6434 0.533908 12.4541 0.646961 12.302L0.719961 12.218L6.71996 6.218C6.84695 6.09098 7.0153 6.01375 7.19441 6.00036C7.37352 5.98696 7.55149 6.03829 7.69596 6.145L7.77996 6.218L10.75 9.188L17.939 2H12.249C12.0679 1.99975 11.893 1.93401 11.7567 1.8149C11.6203 1.6958 11.5316 1.53138 11.507 1.352L11.5 1.25C11.5 1.06876 11.5656 0.893658 11.6847 0.75707C11.8039 0.620481 11.9684 0.531648 12.148 0.507L12.25 0.5H12.249Z" fill="black"/>
</svg>
