<svg width="20" height="20" viewBox="0 0 20 20" fill="none" xmlns="http://www.w3.org/2000/svg">
<path d="M4 2.01005C1.58 3.84005 0 6.73005 0 10C0 11.46 0.32 12.85 0.89 14.11L4 12.31V2.01005ZM9 9.42005V0.0500488C7.94 0.160049 6.93 0.430049 6 0.840049V11.16L9 9.42005ZM10 11.15L1.89 15.83C2.5 16.67 3.23 17.42 4.07 18.0301L13 12.89L10 11.15ZM11 5.96005V9.42005L19.11 14.1C19.53 13.17 19.81 12.17 19.93 11.12L11 5.96005ZM6.07 19.2001C7.28 19.7101 8.6 20 10 20C13.34 20 16.29 18.35 18.11 15.84L15 14.04L6.07 19.2001ZM19.92 8.81005C19.37 4.18005 15.66 0.510049 11 0.0500488V3.65005L19.92 8.81005Z" fill="#AA6E00"/>
</svg>
