<svg width="20" height="20" viewBox="0 0 20 20" fill="none" xmlns="http://www.w3.org/2000/svg">
<path d="M7.14286 15.1785H12.8571C13.6429 15.1785 14.2857 14.6361 14.2857 13.9732V7.94632H16.5571C17.8286 7.94632 18.4714 6.64452 17.5714 5.88514L11.0143 0.352503C10.8821 0.240761 10.7251 0.152109 10.5523 0.0916217C10.3795 0.0311346 10.1942 0 10.0071 0C9.82005 0 9.63478 0.0311346 9.46197 0.0916217C9.28915 0.152109 9.13216 0.240761 9 0.352503L2.44286 5.88514C1.54286 6.64452 2.17143 7.94632 3.44286 7.94632H5.71429V13.9732C5.71429 14.6361 6.35714 15.1785 7.14286 15.1785ZM1.42857 17.5893H18.5714C19.3571 17.5893 20 18.1317 20 18.7946C20 19.4576 19.3571 20 18.5714 20H1.42857C0.642857 20 0 19.4576 0 18.7946C0 18.1317 0.642857 17.5893 1.42857 17.5893Z" fill="black"/>
</svg>
