<svg width="12" height="16" viewBox="0 0 12 16" fill="none" xmlns="http://www.w3.org/2000/svg">
<path d="M0.664998 13.4568C0.664998 13.4568 2.45562 14.0456 4.95312 14.0718C7.505 14.0981 9.34062 13.0893 9.34062 13.0893L9.305 14.4937C9.305 14.4937 7.67375 15.2831 4.97937 15.2831C2.285 15.2831 0.653748 14.6381 0.653748 14.6381L0.664998 13.4568ZM7.8725 1.90685C8.25312 2.37372 8.885 1.9856 9.29187 1.8806C9.69875 1.7756 10.4487 1.78872 10.475 1.85435C10.5012 1.91997 9.515 2.11685 8.99 3.22122C8.58312 4.07435 8.69562 5.12247 8.735 5.47685C8.79125 5.98872 9.06875 6.73122 9.74 6.73122C10.5556 6.73122 10.6344 6.00747 10.6606 5.63997C10.6869 5.27247 10.445 3.58497 10.9081 2.85935C11.3112 2.2256 11.7875 2.27435 11.7875 2.27435C11.7875 2.27435 11.7519 1.9181 11.7125 1.68185C11.6731 1.4456 11.6225 1.19247 11.6225 1.19247C11.6225 1.19247 10.8987 0.813724 10.3587 0.590599C9.81875 0.367474 8.81937 0.277474 8.1875 0.763099C7.6775 1.15685 7.75437 1.76247 7.8725 1.90685Z" fill="#950D19"/>
</svg>
