<svg width="22" height="22" viewBox="0 0 22 22" fill="none" xmlns="http://www.w3.org/2000/svg">
<path d="M13.079 0.5C13.2378 0.500005 13.3925 0.550406 13.5208 0.643944C13.6491 0.737482 13.7445 0.86933 13.793 1.0205L14.618 3.584C14.9645 3.7535 15.296 3.944 15.6125 4.1585L18.2465 3.5915C18.4018 3.55834 18.5637 3.57534 18.7087 3.64003C18.8537 3.70473 18.9745 3.81379 19.0535 3.9515L21.1325 7.55C21.2119 7.68763 21.2456 7.84693 21.2286 8.0049C21.2116 8.16288 21.1449 8.31139 21.038 8.429L19.2305 10.424C19.2569 10.8065 19.2569 11.1905 19.2305 11.573L21.038 13.571C21.1449 13.6886 21.2116 13.8371 21.2286 13.9951C21.2456 14.1531 21.2119 14.3124 21.1325 14.45L19.0535 18.05C18.9742 18.1874 18.8534 18.2962 18.7084 18.3606C18.5634 18.425 18.4017 18.4418 18.2465 18.4085L15.6125 17.8415C15.2975 18.0545 14.9645 18.2465 14.6195 18.416L13.793 20.9795C13.7445 21.1307 13.6491 21.2625 13.5208 21.3561C13.3925 21.4496 13.2378 21.5 13.079 21.5H8.92104C8.76225 21.5 8.60757 21.4496 8.47925 21.3561C8.35094 21.2625 8.25563 21.1307 8.20704 20.9795L7.38354 18.4175C7.03797 18.2485 6.70465 18.0555 6.38604 17.84L3.75354 18.4085C3.59824 18.4417 3.43642 18.4247 3.29139 18.36C3.14637 18.2953 3.02562 18.1862 2.94654 18.0485L0.86754 14.45C0.788152 14.3124 0.754526 14.1531 0.77151 13.9951C0.788494 13.8371 0.855211 13.6886 0.96204 13.571L2.76954 11.573C2.74336 11.1914 2.74336 10.8086 2.76954 10.427L0.96204 8.429C0.855211 8.31139 0.788494 8.16288 0.77151 8.0049C0.754526 7.84693 0.788152 7.68763 0.86754 7.55L2.94654 3.95C3.02584 3.81256 3.14668 3.70381 3.29169 3.63939C3.4367 3.57497 3.5984 3.55821 3.75354 3.5915L6.38604 4.16C6.70404 3.9455 7.03704 3.752 7.38354 3.5825L8.20854 1.0205C8.25697 0.869817 8.35183 0.738318 8.47954 0.644825C8.60725 0.551332 8.76127 0.500639 8.91954 0.5H13.0775H13.079ZM12.53 2H9.47004L8.61804 4.6505L8.04354 4.931C7.76112 5.06921 7.48848 5.22657 7.22754 5.402L6.69654 5.762L3.97254 5.174L2.44254 7.826L4.31004 9.893L4.26504 10.529C4.24349 10.8426 4.24349 11.1574 4.26504 11.471L4.31004 12.107L2.43954 14.174L3.97104 16.826L6.69504 16.2395L7.22604 16.598C7.48698 16.7734 7.75962 16.9308 8.04204 17.069L8.61654 17.3495L9.47004 20H12.533L13.388 17.348L13.961 17.069C14.2432 16.9311 14.5153 16.7737 14.7755 16.598L15.305 16.2395L18.0305 16.826L19.5605 14.174L17.6915 12.107L17.7365 11.471C17.7582 11.1569 17.7582 10.8416 17.7365 10.5275L17.6915 9.8915L19.562 7.826L18.0305 5.174L15.305 5.759L14.7755 5.402C14.5153 5.22622 14.2432 5.06884 13.961 4.931L13.388 4.652L12.5315 2H12.53ZM11 6.5C12.1935 6.5 13.3381 6.97411 14.182 7.81802C15.0259 8.66193 15.5 9.80653 15.5 11C15.5 12.1935 15.0259 13.3381 14.182 14.182C13.3381 15.0259 12.1935 15.5 11 15.5C9.80657 15.5 8.66197 15.0259 7.81806 14.182C6.97415 13.3381 6.50004 12.1935 6.50004 11C6.50004 9.80653 6.97415 8.66193 7.81806 7.81802C8.66197 6.97411 9.80657 6.5 11 6.5V6.5ZM11 8C10.2044 8 9.44133 8.31607 8.87872 8.87868C8.31611 9.44129 8.00004 10.2044 8.00004 11C8.00004 11.7956 8.31611 12.5587 8.87872 13.1213C9.44133 13.6839 10.2044 14 11 14C11.7957 14 12.5588 13.6839 13.1214 13.1213C13.684 12.5587 14 11.7956 14 11C14 10.2044 13.684 9.44129 13.1214 8.87868C12.5588 8.31607 11.7957 8 11 8V8Z" fill="black"/>
</svg>
