<svg width="17" height="24" viewBox="0 0 17 24" fill="none" xmlns="http://www.w3.org/2000/svg">
<path d="M3.66501 16.4569C3.66501 16.4569 3.58814 21.7744 3.74189 21.9882C3.89751 22.2019 5.29439 23.1919 7.97376 23.2294C10.6531 23.2669 12.1663 22.1419 12.2056 21.8907C12.245 21.6376 12.3406 16.0876 12.3406 16.0876C12.3406 16.0876 13.7769 15.3301 14.7856 13.6219C15.7944 11.9138 16.4938 9.58507 16.4544 7.68194C16.4188 5.97382 15.7756 5.70194 15.4456 5.46944C15.1156 5.23694 14.7856 5.27444 14.7856 5.27444C14.7856 5.27444 14.5981 2.82382 13.5631 1.81882C12.245 0.541944 10.2256 0.618819 7.99439 0.618819C5.72376 0.618819 3.45876 0.476319 1.88001 2.67569C0.501888 4.59757 0.831888 7.60507 0.908763 9.09944C0.985638 10.5938 1.54251 13.0238 1.95689 13.9707C2.77251 15.8363 3.66501 16.4569 3.66501 16.4569Z" fill="#DC0D28"/>
</svg>
